# xmcd
#
# Track frame offsets: 
#        150
#        19462
#        33610
#        51700
#        64825
#        83322
#        94887
#        112942
#        131007
#        145537
#        164392
#        181397
#        198312
#        212277
#        230790
#        250090
#        269437
#        286600
#
# Disc length: 4079 seconds
#
# Revision: 0
# Processed by: cddbd v1.4PL0 Copyright (c) Steve Scherf et al.
# Submitted via: ExactAudioCopy v0.90b4
#
DISCID=000fed12
DTITLE=Vince Gill - Vince Gill Sampler
DYEAR=1900
DGENRE=Country
TTITLE0=When I Call Your Name
TTITLE1=Oklahoma Swing (With Reba McEntire)
TTITLE2=Never Knew Lonely
TTITLE3=Liza Jane
TTITLE4=Pocket Full Of Gold
TTITLE5=Take Your Memory With You
TTITLE6=Look At Us
TTITLE7=I Still Believe In You
TTITLE8=One More Last Chance
TTITLE9=No Future In The Past
TTITLE10=Don't Let Our Love Start Slippin' Away
TTITLE11=Tryin' To Get Over You
TTITLE12=What The Cowgirls Do
TTITLE13=When Love Finds You
TTITLE14=South Side Of Dixie
TTITLE15=Which Bridge To Cross (Which Bridge To Burn)
TTITLE16=You Better Think Twice
TTITLE17=Whenever You Come Around
EXTD=
EXTT0=
EXTT1=
EXTT2=
EXTT3=
EXTT4=
EXTT5=
EXTT6=
EXTT7=
EXTT8=
EXTT9=
EXTT10=
EXTT11=
EXTT12=
EXTT13=
EXTT14=
EXTT15=
EXTT16=
EXTT17=
PLAYORDER=
